<?xml version="1.0" encoding="iso-8859-1"?>
<!-- Generator: Adobe Illustrator 19.0.0, SVG Export Plug-In . SVG Version: 6.00 Build 0)  -->
<svg version="1.1" id="Layer_1" xmlns="http://www.w3.org/2000/svg" xmlns:xlink="http://www.w3.org/1999/xlink" x="0px" y="0px"
	 viewBox="0 0 512 512" style="enable-background:new 0 0 512 512;" xml:space="preserve">
<g>
	<g>
		<g>
			<path d="M250.179,173.166c-3.768,2.068-6.336,6.08-6.336,10.668v35.328c0,4.585,2.568,8.596,6.336,10.665
				c0.169,0.082,0.341,0.151,0.499,0.233v-0.233c1.587,0.94,3.412,1.485,5.322,1.485c1.917,0,3.735-0.545,5.317-1.485v0.233
				c0.164-0.082,0.34-0.151,0.499-0.233c3.768-2.068,6.336-6.08,6.336-10.665v-35.326c0-4.59-2.568-8.602-6.336-10.667
				c-0.161-0.082-0.335-0.151-0.499-0.233v0.233c-1.582-0.934-3.402-1.49-5.317-1.49c-1.912,0-3.735,0.556-5.322,1.49v-0.233
				C250.516,173.015,250.348,173.084,250.179,173.166z"/>
			<path d="M278.797,132.178h-17.48v-28.925c0-6.185,1.231-12.211,3.64-17.905c2.419-5.699,5.901-10.765,10.337-15.058l0.781-0.747
				c5.478-5.299,9.761-11.538,12.741-18.552c2.975-7.014,4.475-14.441,4.475-22.057V0h-10.627v28.933
				c0,6.18-1.226,12.204-3.64,17.902c-2.414,5.693-5.896,10.76-10.332,15.06l-0.781,0.747c-5.484,5.294-9.769,11.538-12.741,18.557
				c-2.975,7.014-4.493,14.433-4.493,22.052v28.925h-17.467c-58.488,0-106.353,47.862-106.353,106.348v23.882
				c36.741,20.733,78.932,32.87,123.82,33.761v-29.412c-0.161-0.049-0.33-0.074-0.499-0.12
				c-9.738-2.586-16.965-11.505-16.965-22.029v-60.772c0-10.532,7.229-19.448,16.965-22.029c0.169-0.046,0.34-0.077,0.499-0.118
				V132.18h10.639v29.507c0.164,0.041,0.341,0.072,0.499,0.118c9.748,2.581,16.981,11.497,16.981,22.029v60.769
				c0,10.527-7.232,19.446-16.981,22.029c-0.161,0.046-0.335,0.072-0.499,0.12v29.412c44.895-0.891,87.091-13.028,123.825-33.761
				V238.52C385.142,180.04,337.28,132.178,278.797,132.178z"/>
			<path d="M126.858,274.529v131.113c0,58.499,47.867,106.358,106.353,106.358h45.586c58.483,0,106.345-47.859,106.345-106.358
				V274.529c-38.5,20.646-82.488,32.366-129.142,32.366S165.358,295.178,126.858,274.529z"/>
		</g>
	</g>
</g>
<g>
</g>
<g>
</g>
<g>
</g>
<g>
</g>
<g>
</g>
<g>
</g>
<g>
</g>
<g>
</g>
<g>
</g>
<g>
</g>
<g>
</g>
<g>
</g>
<g>
</g>
<g>
</g>
<g>
</g>
</svg>
